<svg xmlns="http://www.w3.org/2000/svg" viewBox="0 0 202.66 74.02"><defs><style>.cls-1{fill:#a2e3b7;}</style></defs><title>otc-sb-logo_v2</title><g id="Layer_2" data-name="Layer 2"><g id="Layer_1-2" data-name="Layer 1"><path class="cls-1" d="M57.7,44.35c-9.78.75-15.48,3.65-21.5,6.72C29.1,54.68,21.84,58.37,7,58.68Q7.9,60,9,61.23c14.13-.58,21.36-4.25,28.42-7.85,5.79-2.94,11.25-5.73,20.52-6.44a64.7,64.7,0,0,1,14.41.91c.26-.83.48-1.67.68-2.53a66.38,66.38,0,0,0-15.29-1"/><path class="cls-1" d="M58.61,51.1c-9.79.75-15.48,3.65-21.51,6.72C30.86,61,24.49,64.24,12.91,65.18a38.06,38.06,0,0,0,3,2.33c10.29-1.24,16.37-4.33,22.35-7.37,5.78-3,11.25-5.74,20.52-6.45a58.74,58.74,0,0,1,10.94.41c.42-.81.82-1.63,1.18-2.48a61.89,61.89,0,0,0-12.32-.52"/><path class="cls-1" d="M59.44,58c-9.5.75-14.71,3.5-20.23,6.4-4.71,2.47-9.54,5-17.52,6.4a36,36,0,0,0,4.55,1.71,59.69,59.69,0,0,0,14.18-5.81c5.27-2.77,10.25-5.39,19.22-6.1a42.23,42.23,0,0,1,5.86,0c.66-.8,1.28-1.63,1.87-2.49A51.65,51.65,0,0,0,59.44,58"/><path class="cls-1" d="M40.42,70.87c-2,1-4,2.08-6.21,3,.44,0,.87.06,1.31.07h.11l1.31,0H38l.76,0L39,74l.6,0,.31,0,.35,0,1.33-.7c4.71-2.48,9.19-4.83,16.47-5.81a37.9,37.9,0,0,0,3.71-3l-1.17.07c-9.5.75-14.71,3.5-20.22,6.4"/><path class="cls-1" d="M68.14,17a37,37,0,0,0-68,17.21C0,34.84,0,35.54,0,36l.67-.53h0l.55-.42c.52-.38,1.33-1,1.34-1v0L25.48,16.61,55.76,37.84c-1.76.15-3.39.37-4.92.65C44.51,35,25.55,21.18,25.55,21.18S11.56,32.31.14,40.76l0,.25h42c-2.63,1.05-5,2.27-7.46,3.51l-.82.42H.76c.19.87.41,1.73.66,2.57H28.5c-6,2.6-13.29,4.68-25.31,4.65.39.89.82,1.76,1.28,2.61,16.13-.16,23.86-4.09,31.4-7.93,5.79-2.94,11.25-5.73,20.52-6.44A66.86,66.86,0,0,1,73.6,41.85c.05-.35.08-.7.12-1.05h0a38.17,38.17,0,0,0,.2-3.88A36.77,36.77,0,0,0,68.14,17M37.52,38.43a145.58,145.58,0,0,1-12-9s-7.1,6.1-11.52,9H7.52c7.71-5.81,15.44-11.71,18-13.86,6.05,4.49,14.23,10.17,20.14,13.86ZM30.33,16.85A21.1,21.1,0,0,1,58,36.36ZM64.68,37.92c-1.39-.12-2.77-.19-4.11-.22,0-.26,0-.52,0-.78A23.69,23.69,0,0,0,36.9,13.24a23.4,23.4,0,0,0-9.11,1.82l-2.37-1.68L12.9,22.92a27.79,27.79,0,0,1,51.8,14c0,.33,0,.67,0,1m6.63.83-4.07-.58c0-.41,0-.83,0-1.25A30.36,30.36,0,0,0,8.45,26.31L3.06,30.42A34.46,34.46,0,0,1,61.27,12.55,34.24,34.24,0,0,1,71.36,36.92c0,.61,0,1.23,0,1.83"/><path class="cls-1" d="M57.7,44.35c-9.78.75-15.48,3.65-21.5,6.72C29.1,54.68,21.84,58.37,7,58.68Q7.9,60,9,61.23c14.13-.58,21.36-4.25,28.42-7.85,5.79-2.94,11.25-5.73,20.52-6.44a64.7,64.7,0,0,1,14.41.91c.26-.83.48-1.67.68-2.53a66.38,66.38,0,0,0-15.29-1"/><path class="cls-1" d="M58.61,51.1c-9.79.75-15.48,3.65-21.51,6.72C30.86,61,24.49,64.24,12.91,65.18a38.06,38.06,0,0,0,3,2.33c10.29-1.24,16.37-4.33,22.35-7.37,5.78-3,11.25-5.74,20.52-6.45a58.74,58.74,0,0,1,10.94.41c.42-.81.82-1.63,1.18-2.48a61.89,61.89,0,0,0-12.32-.52"/><path class="cls-1" d="M59.44,58c-9.5.75-14.71,3.5-20.23,6.4-4.71,2.47-9.54,5-17.52,6.4a36,36,0,0,0,4.55,1.71,59.69,59.69,0,0,0,14.18-5.81c5.27-2.77,10.25-5.39,19.22-6.1a42.23,42.23,0,0,1,5.86,0c.66-.8,1.28-1.63,1.87-2.49A51.65,51.65,0,0,0,59.44,58"/><path class="cls-1" d="M40.42,70.87c-2,1-4,2.08-6.21,3,.44,0,.87.06,1.31.07h.11l1.31,0H38l.76,0L39,74l.6,0,.31,0,.35,0,1.33-.7c4.71-2.48,9.19-4.83,16.47-5.81a37.9,37.9,0,0,0,3.71-3l-1.17.07c-9.5.75-14.71,3.5-20.22,6.4"/><path class="cls-1" d="M68.14,17a37,37,0,0,0-68,17.21C0,34.84,0,35.54,0,36l.67-.53h0l.55-.42c.52-.38,1.33-1,1.34-1v0L25.48,16.61,55.76,37.84c-1.76.15-3.39.37-4.92.65C44.51,35,25.55,21.18,25.55,21.18S11.56,32.31.14,40.76l0,.25h42c-2.63,1.05-5,2.27-7.46,3.51l-.82.42H.76c.19.87.41,1.73.66,2.57H28.5c-6,2.6-13.29,4.68-25.31,4.65.39.89.82,1.76,1.28,2.61,16.13-.16,23.86-4.09,31.4-7.93,5.79-2.94,11.25-5.73,20.52-6.44A66.86,66.86,0,0,1,73.6,41.85c.05-.35.08-.7.12-1.05h0a38.17,38.17,0,0,0,.2-3.88A36.77,36.77,0,0,0,68.14,17M37.52,38.43a145.58,145.58,0,0,1-12-9s-7.1,6.1-11.52,9H7.52c7.71-5.81,15.44-11.71,18-13.86,6.05,4.49,14.23,10.17,20.14,13.86ZM30.33,16.85A21.1,21.1,0,0,1,58,36.36ZM64.68,37.92c-1.39-.12-2.77-.19-4.11-.22,0-.26,0-.52,0-.78A23.69,23.69,0,0,0,36.9,13.24a23.4,23.4,0,0,0-9.11,1.82l-2.37-1.68L12.9,22.92a27.79,27.79,0,0,1,51.8,14c0,.33,0,.67,0,1m6.63.83-4.07-.58c0-.41,0-.83,0-1.25A30.36,30.36,0,0,0,8.45,26.31L3.06,30.42A34.46,34.46,0,0,1,61.27,12.55,34.24,34.24,0,0,1,71.36,36.92c0,.61,0,1.23,0,1.83"/><path class="cls-1" d="M86.18,32.49c4.37,0,7.4-3.29,7.4-7.79s-3-7.79-7.4-7.79-7.35,3.27-7.35,7.79,3,7.79,7.35,7.79m0-12.12c2,0,3.42,1.72,3.42,4.33S88.22,29,86.18,29s-3.37-1.72-3.37-4.32,1.33-4.33,3.37-4.33"/><polygon class="cls-1" points="98.59 32.24 102.55 32.24 102.55 20.55 107.22 20.55 107.22 17.15 93.95 17.15 93.95 20.55 98.59 20.55 98.59 32.24"/><path class="cls-1" d="M115.5,32.49c4,0,6.56-2.26,6.56-6.39v-9h-3.93v8.58c0,2.14-1,3.25-2.63,3.25s-2.66-1.11-2.66-3.25V17.15h-3.93v8.93c0,4.15,2.61,6.41,6.59,6.41"/><polygon class="cls-1" points="127.83 23.27 130.98 32.24 133.53 32.24 136.65 23.27 136.65 32.24 140.37 32.24 140.37 17.16 135.57 17.16 132.28 26.54 128.96 17.16 124.15 17.16 124.15 32.24 127.83 32.24 127.83 23.27"/><path class="cls-1" d="M149.38,32.49c4.38,0,7.4-3.29,7.4-7.79s-3-7.79-7.4-7.79S142,20.18,142,24.7s3,7.79,7.34,7.79m0-12.12c2,0,3.42,1.72,3.42,4.33S151.42,29,149.38,29,146,27.3,146,24.7s1.32-4.33,3.36-4.33"/><polygon class="cls-1" points="168.73 28.83 162.31 28.83 162.31 26.22 168.62 26.22 168.62 22.91 162.31 22.91 162.31 20.55 168.73 20.55 168.73 17.16 158.43 17.16 158.43 32.24 168.73 32.24 168.73 28.83"/><polygon class="cls-1" points="183.81 17.15 170.54 17.15 170.54 20.55 175.19 20.55 175.19 32.24 179.14 32.24 179.14 20.55 183.81 20.55 183.81 17.15"/><path class="cls-1" d="M187.62,17.15l-5.75,15.09h3.91l1.05-2.92h5.48l1.08,2.92h4l-5.75-15.09Zm.42,8.93,1.54-4.26,1.55,4.26Z"/><rect class="cls-1" x="198.7" y="17.15" width="3.96" height="15.09"/><path class="cls-1" d="M88.66,47.82a2.54,2.54,0,0,1-2.58,1.87c-2.09,0-3.27-1.87-3.27-4.33S84,41,86.08,41a2.54,2.54,0,0,1,2.58,1.84h3.93a6.15,6.15,0,0,0-6.51-5.31c-4.22,0-7.25,3.22-7.25,7.79s3,7.79,7.25,7.79a6.14,6.14,0,0,0,6.51-5.33Z"/><path class="cls-1" d="M101.29,53.15c4.38,0,7.4-3.29,7.4-7.79s-3-7.79-7.4-7.79S94,40.84,94,45.36s3,7.79,7.34,7.79m0-12.11c2,0,3.42,1.72,3.42,4.32s-1.38,4.33-3.42,4.33S97.93,48,97.93,45.36,99.25,41,101.29,41"/><polygon class="cls-1" points="114 37.82 110.04 37.82 110.04 52.91 119.3 52.91 119.3 49.49 114 49.49 114 37.82"/><polygon class="cls-1" points="121.6 37.82 121.6 52.91 130.86 52.91 130.86 49.49 125.56 49.49 125.56 37.82 121.6 37.82"/><polygon class="cls-1" points="143.52 49.49 137.1 49.49 137.1 46.89 143.42 46.89 143.42 43.57 137.1 43.57 137.1 41.21 143.52 41.21 143.52 37.82 133.22 37.82 133.22 52.91 143.52 52.91 143.52 49.49"/><path class="cls-1" d="M145.38,45.36c0,4.6,3.1,7.79,7.47,7.79a6.38,6.38,0,0,0,6.76-6.8v-1.5h-6.24V47.8h2.33a2.75,2.75,0,0,1-2.85,1.89c-2.16,0-3.49-1.75-3.49-4.33S150.62,41,152.8,41a2.58,2.58,0,0,1,2.66,1.84h4c-.57-3.07-2.8-5.31-6.69-5.31-4.32,0-7.42,3.2-7.42,7.79"/><polygon class="cls-1" points="171.58 49.49 165.16 49.49 165.16 46.89 171.48 46.89 171.48 43.57 165.16 43.57 165.16 41.21 171.58 41.21 171.58 37.82 161.28 37.82 161.28 52.91 171.58 52.91 171.58 49.49"/><rect class="cls-1" x="81.68" y="12.15" width="9.04" height="3.15"/><rect class="cls-1" x="111.05" y="12.15" width="9.04" height="3.15"/><polygon class="cls-1" points="81.1 59.13 82.77 57.01 84.34 57.01 82.54 59.28 84.42 62.17 82.83 62.17 81.53 60.19 81.1 60.73 81.1 62.17 79.75 62.17 79.75 57.01 81.1 57.01 81.1 59.13"/><path class="cls-1" d="M85.57,58.07a.71.71,0,1,1,.75-.71.72.72,0,0,1-.75.71m.66,4.1H84.91V58.39h1.32Z"/><path class="cls-1" d="M89.12,62.17V62a1.43,1.43,0,0,1-.9.26A1.24,1.24,0,0,1,86.84,61a1.29,1.29,0,0,1,1.45-1.2,1.68,1.68,0,0,1,.83.21v-.25a.42.42,0,0,0-.46-.45.41.41,0,0,0-.44.28H87A1.62,1.62,0,0,1,88.7,58.3a1.48,1.48,0,0,1,1.69,1.55v2.32Zm0-1.28a.61.61,0,0,0-.55-.26c-.26,0-.52.11-.52.36s.26.37.52.37a.63.63,0,0,0,.55-.25Z"/><path class="cls-1" d="M97.38,58.31a1.23,1.23,0,0,1,1.27,1.38v2.48H97.33V60c0-.32-.13-.55-.42-.55a.51.51,0,0,0-.49.41v2.3H95.11V60c0-.32-.14-.55-.43-.55a.5.5,0,0,0-.49.41v2.3H92.88V58.39h1.31v.31a1.27,1.27,0,0,1,1-.39,1.29,1.29,0,0,1,1,.45,1.57,1.57,0,0,1,1.17-.45"/><path class="cls-1" d="M101.51,62.17V62a1.49,1.49,0,0,1-.91.26A1.24,1.24,0,0,1,99.22,61c0-.73.63-1.2,1.46-1.2a1.68,1.68,0,0,1,.83.21v-.25a.48.48,0,0,0-.91-.17H99.36a1.62,1.62,0,0,1,1.73-1.31,1.48,1.48,0,0,1,1.69,1.55v2.32ZM100.09,57h2.12v.91h-2.12Zm1.42,3.86a.63.63,0,0,0-.56-.26c-.26,0-.52.11-.52.36s.26.37.52.37a.65.65,0,0,0,.56-.25Z"/><path class="cls-1" d="M106,59.64a1.13,1.13,0,0,0-.54-.12.61.61,0,0,0-.67.43v2.22H103.5V58.39h1.32v.34a1,1,0,0,1,.85-.42.86.86,0,0,1,.36.06Z"/><path class="cls-1" d="M108.65,62.17V62a1.49,1.49,0,0,1-.91.26A1.24,1.24,0,0,1,106.36,61c0-.73.63-1.2,1.46-1.2a1.71,1.71,0,0,1,.83.21v-.25a.43.43,0,0,0-.47-.45.42.42,0,0,0-.44.28H106.5a1.62,1.62,0,0,1,1.73-1.31,1.47,1.47,0,0,1,1.68,1.55v2.32Zm0-1.28a.63.63,0,0,0-.56-.26c-.26,0-.52.11-.52.36s.26.37.52.37a.65.65,0,0,0,.56-.25Z"/><path class="cls-1" d="M115.14,58.31a1.23,1.23,0,0,1,1.27,1.38v2.48H115.1V60c0-.32-.14-.55-.43-.55a.51.51,0,0,0-.49.41v2.3h-1.31V60c0-.32-.13-.55-.43-.55a.49.49,0,0,0-.48.41v2.3h-1.32V58.39H112v.31a1.23,1.23,0,0,1,1-.39,1.29,1.29,0,0,1,1,.45,1.57,1.57,0,0,1,1.17-.45"/><path class="cls-1" d="M119.28,62.17V62a1.49,1.49,0,0,1-.91.26A1.24,1.24,0,0,1,117,61c0-.73.63-1.2,1.46-1.2a1.68,1.68,0,0,1,.83.21v-.25a.48.48,0,0,0-.91-.17h-1.24a1.62,1.62,0,0,1,1.73-1.31,1.48,1.48,0,0,1,1.69,1.55v2.32Zm0-1.28a.63.63,0,0,0-.56-.26c-.26,0-.52.11-.52.36s.26.37.52.37a.65.65,0,0,0,.56-.25Z"/><path class="cls-1" d="M121.27,56.71h1.32v2a1.35,1.35,0,0,1,1-.41,1.26,1.26,0,0,1,1.34,1.38v2.48h-1.31V60a.48.48,0,0,0-.5-.54.53.53,0,0,0-.54.41v2.29h-1.32Z"/><path class="cls-1" d="M126.37,58.07a.71.71,0,1,1,.74-.71.71.71,0,0,1-.74.71m.65,4.1H125.7V58.39H127Z"/><path class="cls-1" d="M129.92,62.17V62a1.49,1.49,0,0,1-.91.26A1.24,1.24,0,0,1,127.63,61c0-.73.63-1.2,1.46-1.2a1.68,1.68,0,0,1,.83.21v-.25a.48.48,0,0,0-.91-.17h-1.24a1.62,1.62,0,0,1,1.73-1.31,1.48,1.48,0,0,1,1.69,1.55v2.32Zm0-1.28a.63.63,0,0,0-.56-.26c-.26,0-.52.11-.52.36s.26.37.52.37a.65.65,0,0,0,.56-.25Z"/><path class="cls-1" d="M134,59.41h-.56v-1H134v-1h1.3v1h.79v1h-.79v1.26c0,.3.14.42.4.42a1.16,1.16,0,0,0,.42-.08v1.12a2.24,2.24,0,0,1-.73.11A1.22,1.22,0,0,1,134,60.87Z"/><path class="cls-1" d="M140.25,60.85a1.64,1.64,0,0,1-1.78,1.4,2,2,0,0,1,0-3.94,1.72,1.72,0,0,1,1.81,1.89v.33h-2.44c0,.45.28.7.65.7a.53.53,0,0,0,.56-.38Zm-2.4-1H139a.53.53,0,0,0-.54-.55.6.6,0,0,0-.6.55"/><path class="cls-1" d="M144.34,62.25a2,2,0,1,1,1.93-2,1.85,1.85,0,0,1-1.93,2m0-2.86c-.41,0-.63.37-.63.89s.22.88.63.88.63-.36.63-.88-.22-.89-.63-.89"/><path class="cls-1" d="M149.4,59.64a1.2,1.2,0,0,0-.55-.12.62.62,0,0,0-.67.43v2.22h-1.32V58.39h1.32v.34a1,1,0,0,1,.86-.42.9.9,0,0,1,.36.06Z"/><path class="cls-1" d="M152,62.17V62a1.47,1.47,0,0,1-.91.26A1.23,1.23,0,0,1,149.74,61a1.29,1.29,0,0,1,1.45-1.2A1.68,1.68,0,0,1,152,60v-.25a.42.42,0,0,0-.46-.45.43.43,0,0,0-.45.28h-1.24a1.62,1.62,0,0,1,1.73-1.31,1.48,1.48,0,0,1,1.69,1.55v2.32Zm0-1.28a.61.61,0,0,0-.55-.26c-.26,0-.52.11-.52.36s.26.37.52.37a.63.63,0,0,0,.55-.25Z"/><path class="cls-1" d="M159.28,60.85a1.64,1.64,0,0,1-1.78,1.4,2,2,0,0,1,0-3.94,1.72,1.72,0,0,1,1.81,1.89v.33h-2.44c0,.45.28.7.65.7a.53.53,0,0,0,.56-.38Zm-2.41-1H158a.53.53,0,0,0-.54-.55.62.62,0,0,0-.61.55"/><path class="cls-1" d="M161.91,59.41h-.55v-1h.55v-1h1.3v1H164v1h-.79v1.26c0,.3.15.42.41.42A1.16,1.16,0,0,0,164,61v1.12a2.24,2.24,0,0,1-.73.11,1.23,1.23,0,0,1-1.4-1.37Z"/><path class="cls-1" d="M168.19,60.85a1.63,1.63,0,0,1-1.77,1.4,1.84,1.84,0,0,1-1.92-2,1.86,1.86,0,0,1,1.9-2,1.72,1.72,0,0,1,1.81,1.89v.33h-2.44c0,.45.27.7.65.7a.53.53,0,0,0,.56-.38Zm-2.4-1h1.14a.52.52,0,0,0-.53-.55.62.62,0,0,0-.61.55"/><path class="cls-1" d="M172.66,62.17V62a1.45,1.45,0,0,1-.91.26A1.23,1.23,0,0,1,170.38,61a1.29,1.29,0,0,1,1.45-1.2,1.68,1.68,0,0,1,.83.21v-.25a.42.42,0,0,0-.46-.45.43.43,0,0,0-.45.28h-1.24a1.62,1.62,0,0,1,1.73-1.31,1.48,1.48,0,0,1,1.69,1.55v2.32Zm0-1.28a.61.61,0,0,0-.55-.26c-.26,0-.52.11-.52.36s.26.37.52.37a.63.63,0,0,0,.55-.25Z"/><polygon class="cls-1" points="176.23 60.77 175.98 61.06 175.98 62.17 174.66 62.17 174.66 56.71 175.98 56.71 175.98 59.6 177.04 58.39 178.62 58.39 177.19 59.96 178.67 62.17 177.16 62.17 176.23 60.77"/><path class="cls-1" d="M180.67,62.25a2,2,0,1,1,1.93-2,1.86,1.86,0,0,1-1.93,2m0-2.86c-.4,0-.63.37-.63.89s.23.88.63.88.64-.36.64-.88-.23-.89-.64-.89"/><path class="cls-1" d="M185.74,59.64a1.2,1.2,0,0,0-.55-.12.62.62,0,0,0-.67.43v2.22H183.2V58.39h1.32v.34a1,1,0,0,1,.86-.42.94.94,0,0,1,.36.06Z"/><path class="cls-1" d="M188.36,62.17V62a1.49,1.49,0,0,1-.91.26A1.24,1.24,0,0,1,186.07,61c0-.73.63-1.2,1.46-1.2a1.68,1.68,0,0,1,.83.21v-.25a.48.48,0,0,0-.91-.17h-1.24a1.62,1.62,0,0,1,1.73-1.31,1.47,1.47,0,0,1,1.68,1.55v2.32Zm0-1.28a.63.63,0,0,0-.56-.26c-.26,0-.52.11-.52.36s.26.37.52.37a.65.65,0,0,0,.56-.25Z"/><path class="cls-1" d="M190.35,58.39h1.32v.33a1.35,1.35,0,0,1,1-.41A1.26,1.26,0,0,1,194,59.69v2.48h-1.31V60a.48.48,0,0,0-.5-.54.53.53,0,0,0-.54.41v2.29h-1.32Z"/><path class="cls-1" d="M197.16,61.64a1.2,1.2,0,0,1-.9.37,1.86,1.86,0,0,1,0-3.7,1.16,1.16,0,0,1,.9.36v-.28h1.3v3.23a1.8,1.8,0,0,1-2,2,1.7,1.7,0,0,1-1.87-1.37h1.27a.54.54,0,0,0,.6.4c.41,0,.66-.22.66-.71Zm0-2a.67.67,0,0,0-.57-.32.71.71,0,0,0-.7.8c0,.48.26.81.7.81a.65.65,0,0,0,.57-.32Z"/><path class="cls-1" d="M201.35,62.17V62a1.49,1.49,0,0,1-.91.26A1.24,1.24,0,0,1,199.06,61c0-.73.63-1.2,1.46-1.2a1.68,1.68,0,0,1,.83.21v-.25a.48.48,0,0,0-.91-.17H199.2a1.62,1.62,0,0,1,1.73-1.31,1.48,1.48,0,0,1,1.69,1.55v2.32Zm0-1.28a.63.63,0,0,0-.56-.26c-.26,0-.52.11-.52.36s.26.37.52.37a.65.65,0,0,0,.56-.25Z"/></g></g></svg>